# xmcd
#
# Track frame offsets:
#	150
#	13361
#	36976
#	55016
#	76046
#	92594
#	103269
#	122753
#	142748
#	157454
#	172618
#	184027
#	205204
#
# Disc length: 2759 seconds
#
# Revision: 1
# Processed by: cddbd v1.5.2PL0 Copyright (c) Steve Scherf et al.
# Submitted via: audiograbber 1.83.01
#
DISCID=a60ac50d
DTITLE=Camille Bloom - Say goodbye to pretty
DYEAR=2006
DGENRE=Country
TTITLE0=Pretty
TTITLE1=Goodbye
TTITLE2=Stay
TTITLE3=I won
TTITLE4=20/20
TTITLE5=I found love 
TTITLE6=Haunting me
TTITLE7=Soon your past
TTITLE8=Habit
TTITLE9=I Love the way
TTITLE10=That girl
TTITLE11=This world
TTITLE12=Joke
EXTD=
EXTT0=
EXTT1=
EXTT2=
EXTT3=
EXTT4=
EXTT5=
EXTT6=
EXTT7=
EXTT8=
EXTT9=
EXTT10=
EXTT11=
EXTT12=
PLAYORDER=
